# xmcd
#
# Track frame offsets: 
#        150
#        13554
#        30771
#        45161
#        61526
#        77740
#        93078
#        105998
#        124273
#        142562
#        163942
#        181600
#        203335
#
# Disc length: 2886 seconds
#
# Revision: 0
# Processed by: cddbd v1.5.2PL0 Copyright (c) Steve Scherf et al.
# Submitted via: ExactAudioCopy v0.99pb4
#
DISCID=7d0b440d
DTITLE=Reba McEntire - Keep On Loving You
DYEAR=2009
DGENRE=Country
TTITLE0=Strange
TTITLE1=Just When I Thought I'd Stopped Loving You
TTITLE2=I Keep On Lovin` You
TTITLE3=I Want A Cowboy
TTITLE4=Consider Me Gone
TTITLE5=But Why
TTITLE6=Pink Guitar
TTITLE7=She's Turning 50 Today
TTITLE8=Eight Crazy Hours (In The Story Of Love)
TTITLE9=Nothing To LOse
TTITLE10=Over You
TTITLE11=Maggie Creek Road
TTITLE12=I'll Have What She's Having
EXTD=
EXTT0=
EXTT1=
EXTT2=
EXTT3=
EXTT4=
EXTT5=
EXTT6=
EXTT7=
EXTT8=
EXTT9=
EXTT10=
EXTT11=
EXTT12=
PLAYORDER=
